M48
; DRILL file {KiCad 8.0.6} date 2024-11-25T18:37:58+0100
; FORMAT={-:-/ absolute / inch / decimal}
; #@! TF.CreationDate,2024-11-25T18:37:58+01:00
; #@! TF.GenerationSoftware,Kicad,Pcbnew,8.0.6
; #@! TF.FileFunction,Plated,1,2,PTH
FMAT,2
INCH
; #@! TA.AperFunction,Plated,PTH,ViaDrill
T1C0.0315
; #@! TA.AperFunction,Plated,PTH,ComponentDrill
T2C0.0315
; #@! TA.AperFunction,Plated,PTH,ComponentDrill
T3C0.0374
; #@! TA.AperFunction,Plated,PTH,ComponentDrill
T4C0.0394
; #@! TA.AperFunction,Plated,PTH,ComponentDrill
T5C0.0433
; #@! TA.AperFunction,Plated,PTH,ComponentDrill
T6C0.0728
%
G90
G05
T1
X0.0Y0.775
X0.32Y1.225
X0.32Y0.375
X0.53Y1.225
X0.53Y0.375
X0.7Y1.675
X0.825Y1.425
X0.825Y1.325
X0.825Y1.225
X0.825Y0.875
X0.825Y0.575
X0.825Y0.475
X0.825Y0.175
X0.8255Y0.675
X0.915Y1.775
X1.1Y1.775
X1.1Y0.875
X1.225Y1.225
X1.225Y0.775
X1.225Y0.475
X1.225Y0.375
X1.225Y0.275
X1.225Y0.175
X1.5Y1.025
X1.5Y0.175
X1.725Y2.035
X1.725Y1.775
X1.725Y1.675
X1.725Y1.425
X1.725Y1.325
X1.725Y0.675
X1.725Y0.575
X2.0Y1.025
X2.285Y0.925
X2.285Y0.525
X2.375Y1.025
X2.39Y0.175
X2.675Y1.025
X2.825Y1.325
X2.825Y0.975
T2
X0.2Y1.55
X0.2Y1.45
X0.2Y1.35
X0.2Y1.25
X0.2Y1.15
X0.2Y1.05
X0.2Y0.95
X0.2Y0.85
X0.2Y0.7
X0.2Y0.6
X0.2Y0.5
X0.2Y0.4
X0.2Y0.3
X0.2Y0.2
X0.2Y0.1
X0.2Y0.0
X0.4016Y0.975
X0.4016Y0.125
X0.5Y0.975
X0.5Y0.125
X0.7Y1.55
X0.7Y1.45
X0.7Y1.35
X0.7Y1.25
X0.7Y1.15
X0.7Y1.05
X0.7Y0.95
X0.7Y0.85
X0.7Y0.7
X0.7Y0.6
X0.7Y0.5
X0.7Y0.4
X0.7Y0.3
X0.7Y0.2
X0.7Y0.1
X0.7Y0.0
X1.0534Y0.0
X1.1519Y0.0
X1.4246Y0.4248
X1.4246Y0.3248
X1.7246Y0.4248
X1.7246Y0.3248
X1.9Y0.925
X1.9Y0.525
X1.9Y0.275
X2.1Y0.925
X2.1Y0.525
X2.3Y0.275
X2.475Y0.925
X2.475Y0.525
X2.675Y0.925
X2.675Y0.525
T3
X3.7Y1.6469
X3.7Y1.5484
X3.7Y1.45
T4
X0.0Y1.35
X0.0Y1.25
X0.0Y1.15
X0.0Y1.05
X0.0Y0.6
X0.0Y0.5
X0.0Y0.4
X0.0Y0.3
X0.3494Y1.525
X0.3494Y0.675
X0.4494Y1.525
X0.4494Y0.675
X0.5494Y1.525
X0.5494Y0.675
X0.9Y1.55
X1.0Y1.55
X1.099Y0.3758
X1.099Y0.2758
X1.1Y1.55
X1.613Y0.05
X1.613Y-0.05
X1.713Y0.05
X1.713Y-0.05
X1.813Y0.05
X1.813Y-0.05
X1.913Y0.05
X1.913Y-0.05
X2.013Y0.05
X2.013Y-0.05
X2.113Y0.05
X2.113Y-0.05
X2.213Y0.05
X2.213Y-0.05
X2.313Y0.05
X2.313Y-0.05
X2.413Y0.05
X2.413Y-0.05
X2.513Y0.05
X2.513Y-0.05
X2.613Y0.05
X2.613Y-0.05
X2.713Y0.05
X2.713Y-0.05
X2.813Y0.05
X2.813Y-0.05
X2.913Y0.05
X2.913Y-0.05
X3.013Y0.05
X3.013Y-0.05
X3.113Y0.05
X3.113Y-0.05
X3.213Y0.05
X3.213Y-0.05
X3.313Y0.05
X3.313Y-0.05
X3.413Y0.05
X3.413Y-0.05
X3.513Y0.05
X3.513Y-0.05
T5
X1.9Y1.1366
X2.0Y1.1366
X2.1Y1.1366
X2.4688Y1.1366
X2.5688Y1.1366
X2.6687Y1.1366
T6
X0.7299Y1.975
X0.915Y1.975
X1.1Y1.975
T4
G00X0.2Y1.7709
M15
G01X0.2Y1.8575
M16
G05
G00X0.4323Y1.948
M15
G01X0.3457Y1.948
M16
G05
G00X0.4402Y1.7
M15
G01X0.3378Y1.7
M16
G05
M30
