%TF.GenerationSoftware,KiCad,Pcbnew,8.0.2*%
%TF.CreationDate,2024-08-19T21:28:26+02:00*%
%TF.ProjectId,ringlight,72696e67-6c69-4676-9874-2e6b69636164,rev?*%
%TF.SameCoordinates,Original*%
%TF.FileFunction,Copper,L1,Top*%
%TF.FilePolarity,Positive*%
%FSLAX46Y46*%
G04 Gerber Fmt 4.6, Leading zero omitted, Abs format (unit mm)*
G04 Created by KiCad (PCBNEW 8.0.2) date 2024-08-19 21:28:26*
%MOMM*%
%LPD*%
G01*
G04 APERTURE LIST*
G04 Aperture macros list*
%AMRoundRect*
0 Rectangle with rounded corners*
0 $1 Rounding radius*
0 $2 $3 $4 $5 $6 $7 $8 $9 X,Y pos of 4 corners*
0 Add a 4 corners polygon primitive as box body*
4,1,4,$2,$3,$4,$5,$6,$7,$8,$9,$2,$3,0*
0 Add four circle primitives for the rounded corners*
1,1,$1+$1,$2,$3*
1,1,$1+$1,$4,$5*
1,1,$1+$1,$6,$7*
1,1,$1+$1,$8,$9*
0 Add four rect primitives between the rounded corners*
20,1,$1+$1,$2,$3,$4,$5,0*
20,1,$1+$1,$4,$5,$6,$7,0*
20,1,$1+$1,$6,$7,$8,$9,0*
20,1,$1+$1,$8,$9,$2,$3,0*%
%AMRotRect*
0 Rectangle, with rotation*
0 The origin of the aperture is its center*
0 $1 length*
0 $2 width*
0 $3 Rotation angle, in degrees counterclockwise*
0 Add horizontal line*
21,1,$1,$2,0,0,$3*%
G04 Aperture macros list end*
%TA.AperFunction,SMDPad,CuDef*%
%ADD10R,3.500000X2.700000*%
%TD*%
%TA.AperFunction,SMDPad,CuDef*%
%ADD11C,5.700000*%
%TD*%
%TA.AperFunction,SMDPad,CuDef*%
%ADD12RotRect,3.500000X2.700000X45.000000*%
%TD*%
%TA.AperFunction,SMDPad,CuDef*%
%ADD13RotRect,3.500000X2.700000X315.000000*%
%TD*%
%TA.AperFunction,SMDPad,CuDef*%
%ADD14R,2.700000X3.500000*%
%TD*%
%TA.AperFunction,SMDPad,CuDef*%
%ADD15RotRect,3.500000X2.700000X135.000000*%
%TD*%
%TA.AperFunction,ComponentPad*%
%ADD16RoundRect,0.250001X0.899999X0.899999X-0.899999X0.899999X-0.899999X-0.899999X0.899999X-0.899999X0*%
%TD*%
%TA.AperFunction,ComponentPad*%
%ADD17C,2.300000*%
%TD*%
%TA.AperFunction,SMDPad,CuDef*%
%ADD18RotRect,3.500000X2.700000X225.000000*%
%TD*%
%TA.AperFunction,Conductor*%
%ADD19C,0.800000*%
%TD*%
G04 APERTURE END LIST*
D10*
%TO.P,D1,1,K*%
%TO.N,Net-(D1-K)*%
X35995000Y52658000D03*
%TO.P,D1,2,A*%
%TO.N,Net-(D1-A)*%
X23295000Y49958000D03*
D11*
%TO.P,D1,3,PAD*%
%TO.N,GND*%
X29645000Y51308000D03*
%TD*%
D10*
%TO.P,D5,1,K*%
%TO.N,Net-(D5-K)*%
X23114000Y6778000D03*
%TO.P,D5,2,A*%
%TO.N,Net-(D3-K)*%
X35814000Y9478000D03*
D11*
%TO.P,D5,3,PAD*%
%TO.N,GND*%
X29464000Y8128000D03*
%TD*%
D12*
%TO.P,D4,1,K*%
%TO.N,Net-(D4-K)*%
X43180000Y6747278D03*
%TO.P,D4,2,A*%
%TO.N,Net-(D2-K)*%
X50251068Y17636722D03*
D11*
%TO.P,D4,3,PAD*%
%TO.N,GND*%
X46715534Y12192000D03*
%TD*%
D13*
%TO.P,D6,1,K*%
%TO.N,Net-(D6-K)*%
X6747278Y16235534D03*
%TO.P,D6,2,A*%
%TO.N,Net-(D4-K)*%
X17636722Y9164466D03*
D11*
%TO.P,D6,3,PAD*%
%TO.N,GND*%
X12192000Y12700000D03*
%TD*%
D14*
%TO.P,D3,1,K*%
%TO.N,Net-(D3-K)*%
X52658000Y23285000D03*
%TO.P,D3,2,A*%
%TO.N,Net-(D1-K)*%
X49958000Y35985000D03*
D11*
%TO.P,D3,3,PAD*%
%TO.N,GND*%
X51308000Y29635000D03*
%TD*%
D15*
%TO.P,D2,1,K*%
%TO.N,Net-(D2-K)*%
X52434722Y43200466D03*
%TO.P,D2,2,A*%
%TO.N,Net-(D2-A)*%
X41545278Y50271534D03*
D11*
%TO.P,D2,3,PAD*%
%TO.N,GND*%
X46990000Y46736000D03*
%TD*%
D16*
%TO.P,J1,1,Pin_1*%
%TO.N,Net-(D6-K)*%
X34645000Y20320000D03*
D17*
%TO.P,J1,2,Pin_2*%
%TO.N,Net-(D7-A)*%
X29845000Y20320000D03*
%TO.P,J1,3,Pin_3*%
%TO.N,Net-(D5-K)*%
X25045000Y20320000D03*
%TD*%
D18*
%TO.P,D8,1,K*%
%TO.N,Net-(D2-A)*%
X16235534Y52434722D03*
%TO.P,D8,2,A*%
%TO.N,Net-(D7-A)*%
X9164466Y41545278D03*
D11*
%TO.P,D8,3,PAD*%
%TO.N,GND*%
X12700000Y46990000D03*
%TD*%
D14*
%TO.P,D7,1,K*%
%TO.N,Net-(D1-A)*%
X6778000Y35985000D03*
%TO.P,D7,2,A*%
%TO.N,Net-(D7-A)*%
X9478000Y23285000D03*
D11*
%TO.P,D7,3,PAD*%
%TO.N,GND*%
X8128000Y29635000D03*
%TD*%
D19*
%TO.N,Net-(D1-A)*%
X17373000Y55880000D02*
X14128750Y55880000D01*
X14128750Y55880000D02*
X5080000Y46831250D01*
X23295000Y49958000D02*
X17373000Y55880000D01*
X5080000Y37683000D02*
X6778000Y35985000D01*
X5080000Y46831250D02*
X5080000Y37683000D01*
%TO.N,Net-(D1-K)*%
X37947000Y54610000D02*
X35995000Y52658000D01*
X55880000Y45085000D02*
X46355000Y54610000D01*
X49958000Y35985000D02*
X55880000Y41907000D01*
X46355000Y54610000D02*
X37947000Y54610000D01*
X55880000Y41907000D02*
X55880000Y45085000D01*
%TO.N,Net-(D2-K)*%
X50251068Y17636722D02*
X45720000Y22167790D01*
X45720000Y36485744D02*
X52434722Y43200466D01*
X45720000Y22167790D02*
X45720000Y36485744D01*
%TO.N,Net-(D2-A)*%
X41545278Y50271534D02*
X36993744Y45720000D01*
X22950256Y45720000D02*
X16235534Y52434722D01*
X36993744Y45720000D02*
X22950256Y45720000D01*
%TO.N,Net-(D4-K)*%
X20422256Y11950000D02*
X38342000Y11950000D01*
X43180000Y7112000D02*
X43180000Y6747278D01*
X17636722Y9164466D02*
X20422256Y11950000D01*
X38342000Y11950000D02*
X43180000Y7112000D01*
%TO.N,Net-(D5-K)*%
X21416000Y5080000D02*
X12382500Y5080000D01*
X23114000Y6778000D02*
X21416000Y5080000D01*
X3175000Y17145000D02*
X6350000Y20320000D01*
X12382500Y5080000D02*
X3175000Y14287500D01*
X3175000Y14287500D02*
X3175000Y17145000D01*
X6350000Y20320000D02*
X25045000Y20320000D01*
%TO.N,Net-(D6-K)*%
X8291744Y17780000D02*
X32105000Y17780000D01*
X32105000Y17780000D02*
X34645000Y20320000D01*
X6747278Y16235534D02*
X8291744Y17780000D01*
%TO.N,Net-(D3-K)*%
X45085000Y3175000D02*
X54610000Y12700000D01*
X54610000Y12700000D02*
X54610000Y21333000D01*
X35814000Y9478000D02*
X42117000Y3175000D01*
X54610000Y21333000D02*
X52658000Y23285000D01*
X42117000Y3175000D02*
X45085000Y3175000D01*
%TO.N,Net-(D7-A)*%
X13970000Y36739744D02*
X13970000Y23285000D01*
X9478000Y23285000D02*
X13970000Y23285000D01*
X9164466Y41545278D02*
X13970000Y36739744D01*
X29845000Y20320000D02*
X26880000Y23285000D01*
X26880000Y23285000D02*
X13970000Y23285000D01*
%TD*%
%TA.AperFunction,Conductor*%
%TO.N,GND*%
G36*
X58332539Y58349815D02*
G01*
X58378294Y58297011D01*
X58389500Y58245500D01*
X58389500Y1024500D01*
X58369815Y957461D01*
X58317011Y911706D01*
X58265500Y900500D01*
X1024500Y900500D01*
X957461Y920185D01*
X911706Y972989D01*
X900500Y1024500D01*
X900500Y6137667D01*
X3899500Y6137667D01*
X3899500Y5862332D01*
X3899501Y5862315D01*
X3935438Y5589344D01*
X3935441Y5589331D01*
X4006704Y5323369D01*
X4112075Y5068982D01*
X4112080Y5068971D01*
X4249754Y4830516D01*
X4417370Y4612073D01*
X4417376Y4612066D01*
X4612066Y4417376D01*
X4612073Y4417370D01*
X4830516Y4249754D01*
X5068971Y4112080D01*
X5068982Y4112075D01*
X5323369Y4006704D01*
X5533125Y3950500D01*
X5589334Y3935440D01*
X5589337Y3935439D01*
X5589344Y3935438D01*
X5862315Y3899501D01*
X5862320Y3899500D01*
X5862326Y3899500D01*
X5862333Y3899500D01*
X6137667Y3899500D01*
X6137674Y3899500D01*
X6137679Y3899500D01*
X6137684Y3899501D01*
X6410655Y3935438D01*
X6410660Y3935439D01*
X6410666Y3935440D01*
X6543649Y3971072D01*
X6676630Y4006704D01*
X6931017Y4112075D01*
X6931028Y4112080D01*
X7107735Y4214103D01*
X7169479Y4249751D01*
X7211486Y4281984D01*
X7387926Y4417370D01*
X7387933Y4417376D01*
X7582623Y4612066D01*
X7582629Y4612073D01*
X7750245Y4830516D01*
X7750249Y4830521D01*
X7838979Y4984206D01*
X7887919Y5068971D01*
X7887924Y5068982D01*
X7888534Y5070455D01*
X7993295Y5323368D01*
X8064560Y5589334D01*
X8100500Y5862326D01*
X8100500Y6137674D01*
X8064560Y6410666D01*
X7993295Y6676632D01*
X7887923Y6931021D01*
X7750249Y7169479D01*
X7582628Y7387928D01*
X7387928Y7582628D01*
X7169479Y7750249D01*
X6931021Y7887923D01*
X6676632Y7993295D01*
X6410666Y8064560D01*
X6137674Y8100500D01*
X5862326Y8100500D01*
X5589334Y8064560D01*
X5323368Y7993295D01*
X5068979Y7887923D01*
X5068976Y7887921D01*
X5068971Y7887919D01*
X4983778Y7838732D01*
X4830521Y7750249D01*
X4830516Y7750245D01*
X4612073Y7582629D01*
X4612066Y7582623D01*
X4417376Y7387933D01*
X4417370Y7387926D01*
X4252130Y7172580D01*
X4249751Y7169479D01*
X4194861Y7074407D01*
X4112080Y6931028D01*
X4112075Y6931017D01*
X4006704Y6676630D01*
X3988018Y6606892D01*
X3935440Y6410666D01*
X3935439Y6410660D01*
X3935438Y6410655D01*
X3899501Y6137684D01*
X3899500Y6137667D01*
X900500Y6137667D01*
X900500Y17233695D01*
X2274500Y17233695D01*
X2274500Y14198803D01*
X2309103Y14024841D01*
X2309106Y14024829D01*
X2323281Y13990610D01*
X2376985Y13860956D01*
X2376990Y13860947D01*
X2436063Y13772540D01*
X2436064Y13772539D01*
X2475537Y13713461D01*
X2475538Y13713460D01*
X11683036Y4505965D01*
X11745751Y4443249D01*
X11808466Y4380534D01*
X11955946Y4281990D01*
X11955959Y4281983D01*
X12119832Y4214106D01*
X12119840Y4214104D01*
X12293806Y4179500D01*
X12293808Y4179500D01*
X21504696Y4179500D01*
X21678658Y4214103D01*
X21678666Y4214105D01*
X21760606Y4248046D01*
X21760607Y4248046D01*
X21842542Y4281984D01*
X21842544Y4281985D01*
X21930960Y4341063D01*
X21930961Y4341064D01*
X21990030Y4380531D01*
X21990035Y4380535D01*
X22500681Y4891181D01*
X22562004Y4924666D01*
X22588362Y4927500D01*
X24911870Y4927500D01*
X24911876Y4927501D01*
X24971483Y4933908D01*
X25106328Y4984202D01*
X25106335Y4984206D01*
X25221544Y5070452D01*
X25221547Y5070455D01*
X25307793Y5185664D01*
X25307797Y5185671D01*
X25358091Y5320517D01*
X25364500Y5380127D01*
X25364499Y8175872D01*
X25358091Y8235483D01*
X25307796Y8370331D01*
X25221546Y8485546D01*
X25106331Y8571796D01*
X24971483Y8622091D01*
X24911873Y8628500D01*
X21316128Y8628499D01*
X21267757Y8623299D01*
X21256516Y8622091D01*
X21121671Y8571797D01*
X21121664Y8571793D01*
X21006455Y8485547D01*
X21006452Y8485544D01*
X20920206Y8370335D01*
X20920202Y8370328D01*
X20869908Y8235482D01*
X20863501Y8175883D01*
X20863501Y8175876D01*
X20863500Y8175864D01*
X20863501Y6104500D01*
X20843816Y6037461D01*
X20791013Y5991706D01*
X20739501Y5980500D01*
X12806861Y5980500D01*
X12739822Y6000185D01*
X12719180Y6016819D01*
X9288691Y9447308D01*
X14939045Y9447308D01*
X14959525Y9304851D01*
X15019312Y9173938D01*
X15056941Y9127243D01*
X17599501Y6584685D01*
X17599508Y6584679D01*
X17646193Y6547057D01*
X17646195Y6547056D01*
X17777108Y6487269D01*
X17777107Y6487269D01*
X17919565Y6466789D01*
X18062020Y6487269D01*
X18062024Y6487270D01*
X18192935Y6547056D01*
X18192940Y6547059D01*
X18239615Y6584673D01*
X18239622Y6584679D01*
X20216506Y8561564D01*
X20216515Y8561574D01*
X20254130Y8608249D01*
X20313917Y8739163D01*
X20313918Y8739167D01*
X20334399Y8881623D01*
X20313918Y9024080D01*
X20266804Y9127243D01*
X20254130Y9154996D01*
X20216511Y9201679D01*
X19669652Y9748535D01*
X19636168Y9809858D01*
X19641152Y9879549D01*
X19669653Y9923897D01*
X20758937Y11013181D01*
X20820260Y11046666D01*
X20846618Y11049500D01*
X33444121Y11049500D01*
X33511160Y11029815D01*
X33556915Y10977011D01*
X33567410Y10912247D01*
X33563500Y10875873D01*
X33563500Y10875867D01*
X33563500Y8080129D01*
X33563501Y8080123D01*
X33569908Y8020516D01*
X33620202Y7885671D01*
X33620206Y7885664D01*
X33706452Y7770455D01*
X33706455Y7770452D01*
X33821664Y7684206D01*
X33821671Y7684202D01*
X33956517Y7633908D01*
X33956516Y7633908D01*
X34016116Y7627501D01*
X34016119Y7627500D01*
X34016127Y7627500D01*
X36339637Y7627500D01*
X36406676Y7607815D01*
X36427318Y7591181D01*
X41542960Y2475538D01*
X41542961Y2475537D01*
X41602039Y2436064D01*
X41602040Y2436063D01*
X41690455Y2376985D01*
X41772393Y2343046D01*
X41772392Y2343045D01*
X41854329Y2309106D01*
X41854341Y2309103D01*
X42028303Y2274500D01*
X42028308Y2274500D01*
X45173696Y2274500D01*
X45347658Y2309103D01*
X45347666Y2309105D01*
X45429606Y2343046D01*
X45429607Y2343046D01*
X45511542Y2376984D01*
X45511544Y2376985D01*
X45599960Y2436063D01*
X45599961Y2436064D01*
X45659030Y2475531D01*
X45659035Y2475535D01*
X49321167Y6137667D01*
X51189500Y6137667D01*
X51189500Y5862332D01*
X51189501Y5862315D01*
X51225438Y5589344D01*
X51225441Y5589331D01*
X51296704Y5323369D01*
X51402075Y5068982D01*
X51402080Y5068971D01*
X51539754Y4830516D01*
X51707370Y4612073D01*
X51707376Y4612066D01*
X51902066Y4417376D01*
X51902073Y4417370D01*
X52120516Y4249754D01*
X52358971Y4112080D01*
X52358982Y4112075D01*
X52613369Y4006704D01*
X52823125Y3950500D01*
X52879334Y3935440D01*
X52879337Y3935439D01*
X52879344Y3935438D01*
X53152315Y3899501D01*
X53152320Y3899500D01*
X53152326Y3899500D01*
X53152333Y3899500D01*
X53427667Y3899500D01*
X53427674Y3899500D01*
X53427679Y3899500D01*
X53427684Y3899501D01*
X53700655Y3935438D01*
X53700660Y3935439D01*
X53700666Y3935440D01*
X53833649Y3971072D01*
X53966630Y4006704D01*
X54221017Y4112075D01*
X54221028Y4112080D01*
X54397735Y4214103D01*
X54459479Y4249751D01*
X54501486Y4281984D01*
X54677926Y4417370D01*
X54677933Y4417376D01*
X54872623Y4612066D01*
X54872629Y4612073D01*
X55040245Y4830516D01*
X55040249Y4830521D01*
X55128979Y4984206D01*
X55177919Y5068971D01*
X55177924Y5068982D01*
X55178534Y5070455D01*
X55283295Y5323368D01*
X55354560Y5589334D01*
X55390500Y5862326D01*
X55390500Y6137674D01*
X55354560Y6410666D01*
X55283295Y6676632D01*
X55177923Y6931021D01*
X55040249Y7169479D01*
X54872628Y7387928D01*
X54677928Y7582628D01*
X54459479Y7750249D01*
X54221021Y7887923D01*
X53966632Y7993295D01*
X53700666Y8064560D01*
X53427674Y8100500D01*
X53152326Y8100500D01*
X52879334Y8064560D01*
X52613368Y7993295D01*
X52358979Y7887923D01*
X52358976Y7887921D01*
X52358971Y7887919D01*
X52273778Y7838732D01*
X52120521Y7750249D01*
X52120516Y7750245D01*
X51902073Y7582629D01*
X51902066Y7582623D01*
X51707376Y7387933D01*
X51707370Y7387926D01*
X51542130Y7172580D01*
X51539751Y7169479D01*
X51484861Y7074407D01*
X51402080Y6931028D01*
X51402075Y6931017D01*
X51296704Y6676630D01*
X51278018Y6606892D01*
X51225440Y6410666D01*
X51225439Y6410660D01*
X51225438Y6410655D01*
X51189501Y6137684D01*
X51189500Y6137667D01*
X49321167Y6137667D01*
X55309461Y12125960D01*
X55309465Y12125965D01*
X55336107Y12165839D01*
X55367395Y12212664D01*
X55367397Y12212666D01*
X55367397Y12212667D01*
X55408009Y12273445D01*
X55408011Y12273450D01*
X55408013Y12273453D01*
X55441953Y12355393D01*
X55475895Y12437334D01*
X55510500Y12611308D01*
X55510500Y12788692D01*
X55510500Y21421691D01*
X55509341Y21427516D01*
X55497484Y21487127D01*
X55497484Y21487128D01*
X55475895Y21595666D01*
X55408013Y21759547D01*
X55309464Y21907036D01*
X54544817Y22671681D01*
X54511333Y22733004D01*
X54508499Y22759362D01*
X54508499Y25082870D01*
X54508499Y25082873D01*
X54502091Y25142483D01*
X54451796Y25277331D01*
X54365546Y25392546D01*
X54250331Y25478796D01*
X54115483Y25529091D01*
X54055873Y25535500D01*
X51260128Y25535499D01*
X51211757Y25530299D01*
X51200516Y25529091D01*
X51065671Y25478797D01*
X51065664Y25478793D01*
X50950455Y25392547D01*
X50950452Y25392544D01*
X50864206Y25277335D01*
X50864202Y25277328D01*
X50813908Y25142482D01*
X50811956Y25124320D01*
X50807501Y25082876D01*
X50807500Y25082864D01*
X50807501Y21487129D01*
X50813908Y21427516D01*
X50864202Y21292671D01*
X50864206Y21292664D01*
X50950452Y21177455D01*
X50950455Y21177452D01*
X51065664Y21091206D01*
X51065671Y21091202D01*
X51200517Y21040908D01*
X51200516Y21040908D01*
X51260116Y21034501D01*
X51260119Y21034500D01*
X51260127Y21034500D01*
X53583636Y21034500D01*
X53650675Y21014815D01*
X53671317Y20998181D01*
X53673181Y20996317D01*
X53706666Y20934994D01*
X53709500Y20908636D01*
X53709500Y13124362D01*
X53689815Y13057323D01*
X53673181Y13036681D01*
X44748319Y4111819D01*
X44686996Y4078334D01*
X44660638Y4075500D01*
X43424587Y4075500D01*
X43357548Y4095185D01*
X43311793Y4147989D01*
X43301849Y4217147D01*
X43330874Y4280703D01*
X43336906Y4287181D01*
X45759780Y6710057D01*
X45759788Y6710065D01*
X45797408Y6756748D01*
X45857196Y6887663D01*
X45877677Y7030121D01*
X45857196Y7172578D01*
X45797408Y7303494D01*
X45759789Y7350176D01*
X43782898Y9327066D01*
X43736216Y9364686D01*
X43605300Y9424474D01*
X43462843Y9444955D01*
X43320385Y9424474D01*
X43189470Y9364686D01*
X43142787Y9327067D01*
X43142782Y9327062D01*
X43142777Y9327058D01*
X42778290Y8962570D01*
X42716967Y8929085D01*
X42647276Y8934069D01*
X42602930Y8962568D01*
X39399658Y12165841D01*
X39366175Y12227162D01*
X39371159Y12296854D01*
X39413031Y12352787D01*
X39470455Y12376365D01*
X39532572Y12384903D01*
X39532577Y12384904D01*
X39782930Y12455050D01*
X40021389Y12558626D01*
X40243541Y12693720D01*
X40445219Y12857798D01*
X40445223Y12857801D01*
X40612286Y13036681D01*
X40622679Y13047809D01*
X40622679Y13047810D01*
X40622684Y13047815D01*
X40772619Y13260223D01*
X40892233Y13491069D01*
X40979301Y13736053D01*
X41032198Y13990611D01*
X41049941Y14250000D01*
X41032198Y14509389D01*
X40979301Y14763947D01*
X40892233Y15008931D01*
X40772619Y15239777D01*
X40622684Y15452185D01*
X40445223Y15642199D01*
X40243542Y15806279D01*
X40021397Y15941369D01*
X40021392Y15941371D01*
X40021389Y15941373D01*
X39862416Y16010423D01*
X39782926Y16044951D01*
X39532572Y16115097D01*
X39302768Y16146683D01*
X39274999Y16150500D01*
X39274998Y16150500D01*
X39233691Y16150500D01*
X20233691Y16150500D01*
X20145000Y16150500D01*
X20015002Y16150500D01*
X20015001Y16150500D01*
X19983876Y16146221D01*
X19757428Y16115097D01*
X19507074Y16044951D01*
X19507070Y16044949D01*
X19507069Y16044949D01*
X19268610Y15941373D01*
X19268604Y15941369D01*
X19268603Y15941369D01*
X19046458Y15806279D01*
X18844777Y15642199D01*
X18733276Y15522811D01*
X18667320Y15452190D01*
X18667320Y15452189D01*
X18667316Y15452185D01*
X18517381Y15239777D01*
X18403147Y15019313D01*
X18397765Y15008927D01*
X18310700Y14763952D01*
X18310699Y14763950D01*
X18257801Y14509383D01*
X18240059Y14250000D01*
X18257801Y13990616D01*
X18310699Y13736049D01*
X18310700Y13736047D01*
X18397765Y13491072D01*
X18517381Y13260222D01*
X18607344Y13132774D01*
X18660604Y13057323D01*
X18667320Y13047810D01*
X18667320Y13047809D01*
X18844780Y12857798D01*
X19046458Y12693720D01*
X19268607Y12558628D01*
X19442262Y12483200D01*
X19495909Y12438437D01*
X19516838Y12371776D01*
X19498406Y12304381D01*
X19480541Y12281785D01*
X18396153Y11197397D01*
X18334830Y11163912D01*
X18265138Y11168896D01*
X18220791Y11197397D01*
X17673935Y11744254D01*
X17627252Y11781874D01*
X17496337Y11841662D01*
X17353879Y11862143D01*
X17211422Y11841662D01*
X17211420Y11841661D01*
X17211419Y11841661D01*
X17080508Y11781875D01*
X17080503Y11781872D01*
X17050097Y11757368D01*
X17033824Y11744255D01*
X17033823Y11744254D01*
X17033821Y11744252D01*
X15056937Y9767367D01*
X15056928Y9767357D01*
X15019313Y9720682D01*
X14959526Y9589768D01*
X14959525Y9589764D01*
X14939045Y9447308D01*
X9288691Y9447308D01*
X4111819Y14624180D01*
X4078334Y14685503D01*
X4075500Y14711861D01*
X4075500Y15990947D01*
X4095185Y16057986D01*
X4147989Y16103741D01*
X4217147Y16113685D01*
X4280703Y16084660D01*
X4287181Y16078628D01*
X6710057Y13655753D01*
X6710064Y13655747D01*
X6756749Y13618125D01*
X6756751Y13618124D01*
X6887664Y13558337D01*
X6887663Y13558337D01*
X7030121Y13537857D01*
X7172576Y13558337D01*
X7172580Y13558338D01*
X7303491Y13618124D01*
X7303496Y13618127D01*
X7350171Y13655741D01*
X7350178Y13655747D01*
X9327062Y15632632D01*
X9327071Y15632642D01*
X9364686Y15679317D01*
X9424473Y15810231D01*
X9424474Y15810235D01*
X9444955Y15952691D01*
X9424474Y16095148D01*
X9416008Y16113685D01*
X9364686Y16226064D01*
X9327067Y16272747D01*
X8931995Y16667819D01*
X8898510Y16729142D01*
X8903494Y16798833D01*
X8945365Y16854767D01*
X9010830Y16879184D01*
X9019676Y16879500D01*
X32193696Y16879500D01*
X32367658Y16914103D01*
X32367666Y16914105D01*
X32449606Y16948046D01*
X32449607Y16948046D01*
X32531542Y16981984D01*
X32531544Y16981985D01*
X32619955Y17041059D01*
X32619960Y17041064D01*
X32678987Y17080503D01*
X32679036Y17080536D01*
X32679040Y17080539D01*
X32679041Y17080540D01*
X34231680Y18633181D01*
X34293003Y18666666D01*
X34319361Y18669500D01*
X35595015Y18669500D01*
X35697795Y18680000D01*
X35697797Y18680001D01*
X35834573Y18725324D01*
X35864335Y18735186D01*
X35864337Y18735187D01*
X36013651Y18827286D01*
X36013655Y18827289D01*
X36137710Y18951344D01*
X36137713Y18951348D01*
X36229812Y19100662D01*
X36229813Y19100664D01*
X36229814Y19100666D01*
X36284999Y19267203D01*
X36295500Y19369992D01*
X36295500Y21270008D01*
X36284999Y21372797D01*
X36229814Y21539334D01*
X36137711Y21688655D01*
X36013655Y21812711D01*
X35864334Y21904814D01*
X35697797Y21959999D01*
X35595008Y21970500D01*
X33694992Y21970500D01*
X33592203Y21959999D01*
X33425666Y21904814D01*
X33425664Y21904813D01*
X33425662Y21904812D01*
X33276348Y21812713D01*
X33276344Y21812710D01*
X33152289Y21688655D01*
X33152286Y21688651D01*
X33060187Y21539337D01*
X33060186Y21539335D01*
X33042886Y21487127D01*
X33009984Y21387833D01*
X33005001Y21372796D01*
X33005000Y21372795D01*
X32994500Y21270015D01*
X32994500Y19994361D01*
X32974815Y19927322D01*
X32958181Y19906680D01*
X31768319Y18716819D01*
X31706996Y18683334D01*
X31680638Y18680500D01*
X30768111Y18680500D01*
X30701072Y18700185D01*
X30655317Y18752989D01*
X30645373Y18822147D01*
X30674398Y18885703D01*
X30703322Y18910228D01*
X30818137Y18980586D01*
X30818140Y18980588D01*
X31015689Y19149311D01*
X31184412Y19346860D01*
X31320154Y19568372D01*
X31325788Y19581972D01*
X31362106Y19669653D01*
X31419573Y19808390D01*
X31480221Y20061006D01*
X31500604Y20320000D01*
X31480221Y20578994D01*
X31419573Y20831610D01*
X31320154Y21071628D01*
X31184412Y21293140D01*
X31015689Y21490689D01*
X30818140Y21659412D01*
X30596628Y21795154D01*
X30356610Y21894573D01*
X30103994Y21955221D01*
X29845000Y21975604D01*
X29586006Y21955221D01*
X29570690Y21951544D01*
X29500912Y21955032D01*
X29454064Y21984434D01*
X27454036Y23984464D01*
X27394959Y24023936D01*
X27394955Y24023939D01*
X27306552Y24083010D01*
X27306549Y24083011D01*
X27306547Y24083013D01*
X27224606Y24116953D01*
X27142666Y24150895D01*
X26968694Y24185499D01*
X26968693Y24185500D01*
X26968692Y24185500D01*
X26968691Y24185500D01*
X14994500Y24185500D01*
X14927461Y24205185D01*
X14881706Y24257989D01*
X14870500Y24309500D01*
X14870500Y29635001D01*
X17164454Y29635001D01*
X17164454Y29634998D01*
X17184613Y29353133D01*
X17244678Y29077022D01*
X17343432Y28812249D01*
X17343434Y28812245D01*
X17478855Y28564241D01*
X17478860Y28564233D01*
X17648196Y28338025D01*
X17648212Y28338007D01*
X17848007Y28138212D01*
X17848025Y28138196D01*
X18074233Y27968860D01*
X18074241Y27968855D01*
X18322245Y27833434D01*
X18322249Y27833432D01*
X18523003Y27758555D01*
X18587016Y27734680D01*
X18587017Y27734679D01*
X18587022Y27734678D01*
X18863133Y27674613D01*
X19144999Y27654454D01*
X19145000Y27654454D01*
X19145001Y27654454D01*
X19426866Y27674613D01*
X19702977Y27734678D01*
X19702980Y27734679D01*
X19702984Y27734680D01*
X19867372Y27795993D01*
X19967750Y27833432D01*
X19967754Y27833434D01*
X20215758Y27968855D01*
X20215766Y27968860D01*
X20441974Y28138196D01*
X20441992Y28138212D01*
X20641787Y28338007D01*
X20641803Y28338025D01*
X20811139Y28564233D01*
X20811144Y28564241D01*
X20946565Y28812245D01*
X20946567Y28812249D01*
X20946568Y28812251D01*
X21045320Y29077016D01*
X21075353Y29215077D01*
X21105386Y29353133D01*
X21105386Y29353135D01*
X21105387Y29353139D01*
X21125546Y29635000D01*
X21125546Y29635003D01*
X24739561Y29635003D01*
X24739561Y29634996D01*
X24759308Y29195289D01*
X24759309Y29195280D01*
X24818393Y28759100D01*
X24916338Y28329974D01*
X25052354Y27911360D01*
X25225353Y27506607D01*
X25433933Y27119002D01*
X25676411Y26751660D01*
X25676412Y26751659D01*
X25950848Y26407528D01*
X26255041Y26089367D01*
X26255044Y26089364D01*
X26586492Y25799786D01*
X26586520Y25799764D01*
X26942598Y25541058D01*
X26942607Y25541052D01*
X26942608Y25541052D01*
X26951900Y25535500D01*
X27320478Y25315285D01*
X27320483Y25315282D01*
X27717022Y25124320D01*
X27717038Y25124313D01*
X28129130Y24969652D01*
X28129152Y24969644D01*
X28553426Y24852553D01*
X28553427Y24852552D01*
X28986520Y24773957D01*
X28986522Y24773956D01*
X28986527Y24773956D01*
X29424918Y24734500D01*
X29424921Y24734500D01*
X29865078Y24734500D01*
X29865082Y24734500D01*
X30303473Y24773956D01*
X30303479Y24773957D01*
X30736572Y24852552D01*
X30736573Y24852553D01*
X31160847Y24969644D01*
X31160861Y24969649D01*
X31160864Y24969650D01*
X31262873Y25007934D01*
X31572961Y25124313D01*
X31572977Y25124320D01*
X31969516Y25315282D01*
X31969521Y25315285D01*
X31969527Y25315288D01*
X31969534Y25315292D01*
X32347392Y25541052D01*
X32347396Y25541055D01*
X32347401Y25541058D01*
X32703479Y25799764D01*
X32703483Y25799767D01*
X32703491Y25799773D01*
X32703495Y25799777D01*
X32703507Y25799786D01*
X33034955Y26089364D01*
X33034958Y26089367D01*
X33034966Y26089374D01*
X33339146Y26407522D01*
X33441206Y26535500D01*
X33613587Y26751659D01*
X33613588Y26751660D01*
X33784497Y27010578D01*
X33856068Y27119004D01*
X34064648Y27506610D01*
X34237643Y27911352D01*
X34373661Y28329972D01*
X34471607Y28759100D01*
X34530691Y29195280D01*
X34550439Y29635000D01*
X34550439Y29635001D01*
X38164454Y29635001D01*
X38164454Y29634998D01*
X38184613Y29353133D01*
X38244678Y29077022D01*
X38343432Y28812249D01*
X38343434Y28812245D01*
X38478855Y28564241D01*
X38478860Y28564233D01*
X38648196Y28338025D01*
X38648212Y28338007D01*
X38848007Y28138212D01*
X38848025Y28138196D01*
X39074233Y27968860D01*
X39074241Y27968855D01*
X39322245Y27833434D01*
X39322249Y27833432D01*
X39523003Y27758555D01*
X39587016Y27734680D01*
X39587017Y27734679D01*
X39587022Y27734678D01*
X39863133Y27674613D01*
X40144999Y27654454D01*
X40145000Y27654454D01*
X40145001Y27654454D01*
X40426866Y27674613D01*
X40702977Y27734678D01*
X40702980Y27734679D01*
X40702984Y27734680D01*
X40867372Y27795993D01*
X40967750Y27833432D01*
X40967754Y27833434D01*
X41215758Y27968855D01*
X41215766Y27968860D01*
X41441974Y28138196D01*
X41441992Y28138212D01*
X41641787Y28338007D01*
X41641803Y28338025D01*
X41811139Y28564233D01*
X41811144Y28564241D01*
X41946565Y28812245D01*
X41946567Y28812249D01*
X41946568Y28812251D01*
X42045320Y29077016D01*
X42075353Y29215077D01*
X42105386Y29353133D01*
X42105386Y29353135D01*
X42105387Y29353139D01*
X42125546Y29635000D01*
X42105387Y29916861D01*
X42045320Y30192984D01*
X41946568Y30457749D01*
X41811141Y30705764D01*
X41641797Y30931982D01*
X41441982Y31131797D01*
X41215764Y31301141D01*
X40967749Y31436568D01*
X40702984Y31535320D01*
X40426861Y31595387D01*
X40173238Y31613526D01*
X40145001Y31615546D01*
X40144999Y31615546D01*
X40113617Y31613301D01*
X39863139Y31595387D01*
X39863135Y31595386D01*
X39863133Y31595386D01*
X39734977Y31567507D01*
X39587016Y31535320D01*
X39322251Y31436568D01*
X39322249Y31436567D01*
X39322245Y31436565D01*
X39074241Y31301144D01*
X39074233Y31301139D01*
X38848025Y31131803D01*
X38848007Y31131787D01*
X38648212Y30931992D01*
X38648196Y30931974D01*
X38478860Y30705766D01*
X38478855Y30705758D01*
X38343434Y30457754D01*
X38343432Y30457750D01*
X38343432Y30457749D01*
X38244680Y30192984D01*
X38244679Y30192980D01*
X38244678Y30192977D01*
X38184613Y29916866D01*
X38164454Y29635001D01*
X34550439Y29635001D01*
X34530691Y30074720D01*
X34471607Y30510900D01*
X34373661Y30940028D01*
X34237643Y31358648D01*
X34064648Y31763390D01*
X33856068Y32150996D01*
X33613584Y32518345D01*
X33339146Y32862478D01*
X33034966Y33180626D01*
X32703491Y33470227D01*
X32347392Y33728948D01*
X31969534Y33954708D01*
X31969518Y33954715D01*
X31969516Y33954717D01*
X31572977Y34145679D01*
X31572972Y34145680D01*
X31572960Y34145687D01*
X31160864Y34300350D01*
X31160850Y34300353D01*
X31160847Y34300355D01*
X30922359Y34366172D01*
X30736572Y34417446D01*
X30736572Y34417447D01*
X30736566Y34417447D01*
X30736563Y34417449D01*
X30303473Y34496044D01*
X29865082Y34535500D01*
X29424918Y34535500D01*
X28986527Y34496044D01*
X28553437Y34417449D01*
X28553435Y34417448D01*
X28553427Y34417447D01*
X28553426Y34417446D01*
X28129152Y34300355D01*
X28129145Y34300352D01*
X28129136Y34300350D01*
X27717040Y34145687D01*
X27717038Y34145686D01*
X27717022Y34145679D01*
X27320483Y33954717D01*
X27320478Y33954714D01*
X27320466Y33954708D01*
X26942608Y33728948D01*
X26586509Y33470227D01*
X26586501Y33470220D01*
X26586492Y33470213D01*
X26255044Y33180635D01*
X26255034Y33180626D01*
X25950854Y32862478D01*
X25950850Y32862473D01*
X25950848Y32862471D01*
X25676412Y32518340D01*
X25676411Y32518339D01*
X25505503Y32259422D01*
X25433932Y32150996D01*
X25225352Y31763390D01*
X25052357Y31358648D01*
X25052354Y31358639D01*
X24916338Y30940025D01*
X24862870Y30705766D01*
X24818393Y30510900D01*
X24811194Y30457750D01*
X24759309Y30074719D01*
X24759308Y30074710D01*
X24739561Y29635003D01*
X21125546Y29635003D01*
X21105387Y29916861D01*
X21045320Y30192984D01*
X20946568Y30457749D01*
X20811141Y30705764D01*
X20641797Y30931982D01*
X20441982Y31131797D01*
X20215764Y31301141D01*
X19967749Y31436568D01*
X19702984Y31535320D01*
X19426861Y31595387D01*
X19173238Y31613526D01*
X19145001Y31615546D01*
X19144999Y31615546D01*
X19113617Y31613301D01*
X18863139Y31595387D01*
X18863135Y31595386D01*
X18863133Y31595386D01*
X18734977Y31567507D01*
X18587016Y31535320D01*
X18322251Y31436568D01*
X18322249Y31436567D01*
X18322245Y31436565D01*
X18074241Y31301144D01*
X18074233Y31301139D01*
X17848025Y31131803D01*
X17848007Y31131787D01*
X17648212Y30931992D01*
X17648196Y30931974D01*
X17478860Y30705766D01*
X17478855Y30705758D01*
X17343434Y30457754D01*
X17343432Y30457750D01*
X17343432Y30457749D01*
X17244680Y30192984D01*
X17244679Y30192980D01*
X17244678Y30192977D01*
X17184613Y29916866D01*
X17164454Y29635001D01*
X14870500Y29635001D01*
X14870500Y36828437D01*
X14870499Y36828439D01*
X14835896Y37002402D01*
X14835894Y37002405D01*
X14835894Y37002410D01*
X14768013Y37166291D01*
X14669464Y37313779D01*
X14544035Y37439208D01*
X11197397Y40785846D01*
X11163912Y40847169D01*
X11168896Y40916861D01*
X11197397Y40961208D01*
X11744246Y41508057D01*
X11744254Y41508065D01*
X11781874Y41554748D01*
X11841662Y41685663D01*
X11862143Y41828121D01*
X11841662Y41970578D01*
X11781874Y42101494D01*
X11754872Y42135001D01*
X17164454Y42135001D01*
X17164454Y42134998D01*
X17184613Y41853133D01*
X17244678Y41577022D01*
X17244679Y41577017D01*
X17244680Y41577016D01*
X17260051Y41535804D01*
X17343432Y41312249D01*
X17343434Y41312245D01*
X17478855Y41064241D01*
X17478860Y41064233D01*
X17648196Y40838025D01*
X17648212Y40838007D01*
X17848007Y40638212D01*
X17848025Y40638196D01*
X18074233Y40468860D01*
X18074241Y40468855D01*
X18322245Y40333434D01*
X18322249Y40333432D01*
X18523003Y40258555D01*
X18587016Y40234680D01*
X18587017Y40234679D01*
X18587022Y40234678D01*
X18863133Y40174613D01*
X19144999Y40154454D01*
X19145000Y40154454D01*
X19145001Y40154454D01*
X19426866Y40174613D01*
X19702977Y40234678D01*
X19702980Y40234679D01*
X19702984Y40234680D01*
X19867372Y40295993D01*
X19967750Y40333432D01*
X19967754Y40333434D01*
X20215758Y40468855D01*
X20215766Y40468860D01*
X20441974Y40638196D01*
X20441992Y40638212D01*
X20641787Y40838007D01*
X20641803Y40838025D01*
X20811139Y41064233D01*
X20811144Y41064241D01*
X20946565Y41312245D01*
X20946567Y41312249D01*
X20946568Y41312251D01*
X21045320Y41577016D01*
X21097810Y41818309D01*
X21105386Y41853133D01*
X21105386Y41853135D01*
X21105387Y41853139D01*
X21125546Y42135000D01*
X21125546Y42135001D01*
X38164454Y42135001D01*
X38164454Y42134998D01*
X38184613Y41853133D01*
X38244678Y41577022D01*
X38244679Y41577017D01*
X38244680Y41577016D01*
X38260051Y41535804D01*
X38343432Y41312249D01*
X38343434Y41312245D01*
X38478855Y41064241D01*
X38478860Y41064233D01*
X38648196Y40838025D01*
X38648212Y40838007D01*
X38848007Y40638212D01*
X38848025Y40638196D01*
X39074233Y40468860D01*
X39074241Y40468855D01*
X39322245Y40333434D01*
X39322249Y40333432D01*
X39523003Y40258555D01*
X39587016Y40234680D01*
X39587017Y40234679D01*
X39587022Y40234678D01*
X39863133Y40174613D01*
X40144999Y40154454D01*
X40145000Y40154454D01*
X40145001Y40154454D01*
X40426866Y40174613D01*
X40702977Y40234678D01*
X40702980Y40234679D01*
X40702984Y40234680D01*
X40867372Y40295993D01*
X40967750Y40333432D01*
X40967754Y40333434D01*
X41215758Y40468855D01*
X41215766Y40468860D01*
X41441974Y40638196D01*
X41441992Y40638212D01*
X41641787Y40838007D01*
X41641803Y40838025D01*
X41811139Y41064233D01*
X41811144Y41064241D01*
X41946565Y41312245D01*
X41946567Y41312249D01*
X41946568Y41312251D01*
X42045320Y41577016D01*
X42097810Y41818309D01*
X42105386Y41853133D01*
X42105386Y41853135D01*
X42105387Y41853139D01*
X42125546Y42135000D01*
X42124603Y42148178D01*
X42115788Y42271430D01*
X42105387Y42416861D01*
X42100128Y42441034D01*
X42090481Y42485382D01*
X42045320Y42692984D01*
X41946568Y42957749D01*
X41811141Y43205764D01*
X41641797Y43431982D01*
X41441982Y43631797D01*
X41215764Y43801141D01*
X40967749Y43936568D01*
X40702984Y44035320D01*
X40426861Y44095387D01*
X40173238Y44113526D01*
X40145001Y44115546D01*
X40144999Y44115546D01*
X40113617Y44113301D01*
X39863139Y44095387D01*
X39863135Y44095386D01*
X39863133Y44095386D01*
X39725077Y44065353D01*
X39587016Y44035320D01*
X39322251Y43936568D01*
X39322249Y43936567D01*
X39322245Y43936565D01*
X39074241Y43801144D01*
X39074233Y43801139D01*
X38848025Y43631803D01*
X38848007Y43631787D01*
X38648212Y43431992D01*
X38648196Y43431974D01*
X38478860Y43205766D01*
X38478855Y43205758D01*
X38343434Y42957754D01*
X38343432Y42957750D01*
X38343432Y42957749D01*
X38244680Y42692984D01*
X38244679Y42692980D01*
X38244678Y42692977D01*
X38184613Y42416866D01*
X38164454Y42135001D01*
X21125546Y42135001D01*
X21124603Y42148178D01*
X21115788Y42271430D01*
X21105387Y42416861D01*
X21100128Y42441034D01*
X21090481Y42485382D01*
X21045320Y42692984D01*
X20946568Y42957749D01*
X20811141Y43205764D01*
X20641797Y43431982D01*
X20441982Y43631797D01*
X20215764Y43801141D01*
X19967749Y43936568D01*
X19702984Y44035320D01*
X19426861Y44095387D01*
X19173238Y44113526D01*
X19145001Y44115546D01*
X19144999Y44115546D01*
X19113617Y44113301D01*
X18863139Y44095387D01*
X18863135Y44095386D01*
X18863133Y44095386D01*
X18725077Y44065353D01*
X18587016Y44035320D01*
X18322251Y43936568D01*
X18322249Y43936567D01*
X18322245Y43936565D01*
X18074241Y43801144D01*
X18074233Y43801139D01*
X17848025Y43631803D01*
X17848007Y43631787D01*
X17648212Y43431992D01*
X17648196Y43431974D01*
X17478860Y43205766D01*
X17478855Y43205758D01*
X17343434Y42957754D01*
X17343432Y42957750D01*
X17343432Y42957749D01*
X17244680Y42692984D01*
X17244679Y42692980D01*
X17244678Y42692977D01*
X17184613Y42416866D01*
X17164454Y42135001D01*
X11754872Y42135001D01*
X11744255Y42148176D01*
X9767364Y44125066D01*
X9720682Y44162686D01*
X9589766Y44222474D01*
X9447309Y44242955D01*
X9304851Y44222474D01*
X9173936Y44162686D01*
X9127253Y44125067D01*
X9127248Y44125062D01*
X9127243Y44125058D01*
X7212900Y42210713D01*
X6584678Y41582491D01*
X6547058Y41535808D01*
X6547057Y41535806D01*
X6547056Y41535804D01*
X6487269Y41404892D01*
X6466789Y41262435D01*
X6487269Y41119979D01*
X6487270Y41119975D01*
X6547056Y40989064D01*
X6547059Y40989059D01*
X6584673Y40942384D01*
X6584679Y40942377D01*
X8561564Y38965493D01*
X8561574Y38965484D01*
X8608249Y38927869D01*
X8739163Y38868082D01*
X8739167Y38868081D01*
X8881623Y38847601D01*
X9024080Y38868081D01*
X9154993Y38927868D01*
X9154994Y38927869D01*
X9154996Y38927870D01*
X9201679Y38965489D01*
X9201683Y38965493D01*
X9201688Y38965497D01*
X9748536Y39512345D01*
X9809859Y39545830D01*
X9879551Y39540846D01*
X9923898Y39512345D01*
X13033181Y36403063D01*
X13066666Y36341740D01*
X13069500Y36315382D01*
X13069500Y24309500D01*
X13049815Y24242461D01*
X12997011Y24196706D01*
X12945500Y24185500D01*
X11452499Y24185500D01*
X11385460Y24205185D01*
X11339705Y24257989D01*
X11328499Y24309500D01*
X11328499Y25082870D01*
X11328499Y25082873D01*
X11322091Y25142483D01*
X11271796Y25277331D01*
X11185546Y25392546D01*
X11070331Y25478796D01*
X10935483Y25529091D01*
X10875873Y25535500D01*
X8080128Y25535499D01*
X8031757Y25530299D01*
X8020516Y25529091D01*
X7885671Y25478797D01*
X7885664Y25478793D01*
X7770455Y25392547D01*
X7770452Y25392544D01*
X7684206Y25277335D01*
X7684202Y25277328D01*
X7633908Y25142482D01*
X7631956Y25124320D01*
X7627501Y25082876D01*
X7627500Y25082864D01*
X7627501Y21487129D01*
X7633908Y21427516D01*
X7648710Y21387833D01*
X7653694Y21318141D01*
X7620209Y21256818D01*
X7558886Y21223334D01*
X7532528Y21220500D01*
X6261307Y21220500D01*
X6261303Y21220499D01*
X6087334Y21185895D01*
X6005393Y21151953D01*
X5923453Y21118013D01*
X5923447Y21118009D01*
X5852098Y21070335D01*
X5775961Y21019462D01*
X5775958Y21019459D01*
X2475535Y17719035D01*
X2475533Y17719033D01*
X2457012Y17691312D01*
X2457010Y17691309D01*
X2376985Y17571544D01*
X2345834Y17496337D01*
X2309106Y17407668D01*
X2309103Y17407658D01*
X2298321Y17353453D01*
X2298321Y17353452D01*
X2274500Y17233695D01*
X900500Y17233695D01*
X900500Y46919946D01*
X4179500Y46919946D01*
X4179500Y37594303D01*
X4214103Y37420341D01*
X4214106Y37420329D01*
X4248046Y37338393D01*
X4281985Y37256455D01*
X4329591Y37185209D01*
X4380537Y37108961D01*
X4891181Y36598317D01*
X4924666Y36536994D01*
X4927500Y36510636D01*
X4927500Y34187129D01*
X4927501Y34187123D01*
X4933908Y34127516D01*
X4984202Y33992671D01*
X4984206Y33992664D01*
X5070452Y33877455D01*
X5070455Y33877452D01*
X5185664Y33791206D01*
X5185671Y33791202D01*
X5320517Y33740908D01*
X5320516Y33740908D01*
X5380116Y33734501D01*
X5380119Y33734500D01*
X5380127Y33734500D01*
X5380134Y33734500D01*
X5380135Y33734500D01*
X8175870Y33734500D01*
X8175876Y33734501D01*
X8235483Y33740908D01*
X8370328Y33791202D01*
X8370335Y33791206D01*
X8485544Y33877452D01*
X8485547Y33877455D01*
X8571793Y33992664D01*
X8571797Y33992671D01*
X8622091Y34127517D01*
X8628500Y34187127D01*
X8628499Y37782872D01*
X8622091Y37842483D01*
X8571796Y37977331D01*
X8485546Y38092546D01*
X8370331Y38178796D01*
X8235483Y38229091D01*
X8175873Y38235500D01*
X6104499Y38235499D01*
X6037461Y38255184D01*
X5991706Y38307987D01*
X5980500Y38359499D01*
X5980500Y46406888D01*
X6000185Y46473927D01*
X6016819Y46494569D01*
X14465431Y54943181D01*
X14526754Y54976666D01*
X14553112Y54979500D01*
X15863948Y54979500D01*
X15930987Y54959815D01*
X15976742Y54907011D01*
X15986686Y54837853D01*
X15957661Y54774297D01*
X15951629Y54767819D01*
X14767448Y53583637D01*
X13655746Y52471935D01*
X13618126Y52425252D01*
X13618125Y52425250D01*
X13618124Y52425248D01*
X13558337Y52294336D01*
X13537857Y52151879D01*
X13558337Y52009423D01*
X13558338Y52009419D01*
X13618124Y51878508D01*
X13618127Y51878503D01*
X13655741Y51831828D01*
X13655747Y51831821D01*
X15632632Y49854937D01*
X15632642Y49854928D01*
X15679317Y49817313D01*
X15810231Y49757526D01*
X15810235Y49757525D01*
X15952691Y49737045D01*
X16095148Y49757525D01*
X16226061Y49817312D01*
X16226062Y49817313D01*
X16226064Y49817314D01*
X16272747Y49854933D01*
X16272751Y49854937D01*
X16272756Y49854941D01*
X16819603Y50401789D01*
X16880926Y50435274D01*
X16950617Y50430290D01*
X16994965Y50401789D01*
X22376217Y45020537D01*
X22435295Y44981064D01*
X22435296Y44981063D01*
X22523711Y44921985D01*
X22605649Y44888046D01*
X22605648Y44888045D01*
X22687585Y44854106D01*
X22687597Y44854103D01*
X22861559Y44819500D01*
X22861564Y44819500D01*
X37082440Y44819500D01*
X37256402Y44854103D01*
X37256410Y44854105D01*
X37338350Y44888046D01*
X37338351Y44888046D01*
X37420286Y44921984D01*
X37420288Y44921985D01*
X37508704Y44981063D01*
X37508705Y44981064D01*
X37567774Y45020531D01*
X37567779Y45020535D01*
X40785846Y48238602D01*
X40847169Y48272087D01*
X40916861Y48267103D01*
X40961208Y48238602D01*
X41508057Y47691753D01*
X41508064Y47691747D01*
X41554749Y47654125D01*
X41554751Y47654124D01*
X41685664Y47594337D01*
X41685663Y47594337D01*
X41828121Y47573857D01*
X41970576Y47594337D01*
X41970580Y47594338D01*
X42101491Y47654124D01*
X42101496Y47654127D01*
X42148171Y47691741D01*
X42148178Y47691747D01*
X44125062Y49668632D01*
X44125071Y49668642D01*
X44162686Y49715317D01*
X44222473Y49846231D01*
X44222474Y49846235D01*
X44242955Y49988691D01*
X44222474Y50131148D01*
X44175360Y50234311D01*
X44162686Y50262064D01*
X44125067Y50308747D01*
X41582491Y52851322D01*
X41535808Y52888942D01*
X41404893Y52948730D01*
X41262435Y52969211D01*
X41119978Y52948730D01*
X41119976Y52948729D01*
X41119975Y52948729D01*
X40989064Y52888943D01*
X40989059Y52888940D01*
X40970977Y52874368D01*
X40942380Y52851323D01*
X40942379Y52851322D01*
X40942377Y52851320D01*
X38965493Y50874435D01*
X38965484Y50874425D01*
X38927869Y50827750D01*
X38868082Y50696836D01*
X38868081Y50696832D01*
X38847601Y50554376D01*
X38868081Y50411919D01*
X38927868Y50281006D01*
X38965497Y50234311D01*
X39512346Y49687464D01*
X39545831Y49626141D01*
X39540847Y49556450D01*
X39512346Y49512102D01*
X36657063Y46656819D01*
X36595740Y46623334D01*
X36569382Y46620500D01*
X23374618Y46620500D01*
X23307579Y46640185D01*
X23286937Y46656819D01*
X22685959Y47257797D01*
X22047935Y47895819D01*
X22014451Y47957142D01*
X22019435Y48026834D01*
X22061307Y48082767D01*
X22126771Y48107184D01*
X22135617Y48107500D01*
X25092870Y48107500D01*
X25092876Y48107501D01*
X25152483Y48113908D01*
X25287328Y48164202D01*
X25287335Y48164206D01*
X25402544Y48250452D01*
X25402547Y48250455D01*
X25488793Y48365664D01*
X25488797Y48365671D01*
X25539091Y48500517D01*
X25545500Y48560127D01*
X25545499Y51355872D01*
X25539091Y51415483D01*
X25488796Y51550331D01*
X25402546Y51665546D01*
X25287331Y51751796D01*
X25152483Y51802091D01*
X25092873Y51808500D01*
X22769359Y51808499D01*
X22702321Y51828184D01*
X22681684Y51844813D01*
X20470634Y54055864D01*
X33744500Y54055864D01*
X33744500Y51260129D01*
X33744501Y51260123D01*
X33750908Y51200516D01*
X33801202Y51065671D01*
X33801206Y51065664D01*
X33887452Y50950455D01*
X33887455Y50950452D01*
X34002664Y50864206D01*
X34002671Y50864202D01*
X34137517Y50813908D01*
X34137516Y50813908D01*
X34197116Y50807501D01*
X34197119Y50807500D01*
X34197127Y50807500D01*
X34197134Y50807500D01*
X34197135Y50807500D01*
X37792870Y50807500D01*
X37792876Y50807501D01*
X37852483Y50813908D01*
X37987328Y50864202D01*
X37987335Y50864206D01*
X38102544Y50950452D01*
X38102547Y50950455D01*
X38188793Y51065664D01*
X38188797Y51065671D01*
X38239091Y51200517D01*
X38239620Y51205441D01*
X38245500Y51260127D01*
X38245499Y53583637D01*
X38265184Y53650676D01*
X38281818Y53671318D01*
X38283681Y53673181D01*
X38345004Y53706666D01*
X38371362Y53709500D01*
X45930638Y53709500D01*
X45997677Y53689815D01*
X46018319Y53673181D01*
X54943181Y44748319D01*
X54976666Y44686996D01*
X54979500Y44660638D01*
X54979500Y43572051D01*
X54959815Y43505012D01*
X54907011Y43459257D01*
X54837853Y43449313D01*
X54774297Y43478338D01*
X54767819Y43484370D01*
X54009234Y44242955D01*
X52471935Y45780254D01*
X52425252Y45817874D01*
X52294337Y45877662D01*
X52151879Y45898143D01*
X52009422Y45877662D01*
X52009420Y45877661D01*
X52009419Y45877661D01*
X51878508Y45817875D01*
X51878503Y45817872D01*
X51848097Y45793368D01*
X51831824Y45780255D01*
X51831823Y45780254D01*
X51831821Y45780252D01*
X49854937Y43803367D01*
X49854928Y43803357D01*
X49817313Y43756682D01*
X49757526Y43625768D01*
X49757525Y43625764D01*
X49737045Y43483308D01*
X49757525Y43340851D01*
X49817312Y43209938D01*
X49854941Y43163243D01*
X50401790Y42616396D01*
X50435275Y42555073D01*
X50430291Y42485382D01*
X50401790Y42441034D01*
X45020540Y37059785D01*
X45020537Y37059782D01*
X44982203Y37002410D01*
X44921985Y36912288D01*
X44921984Y36912286D01*
X44888046Y36830351D01*
X44888046Y36830350D01*
X44854105Y36748410D01*
X44834740Y36651053D01*
X44834740Y36651052D01*
X44819500Y36574436D01*
X44819500Y22079093D01*
X44854103Y21905131D01*
X44854106Y21905119D01*
X44888046Y21823183D01*
X44921985Y21741245D01*
X44976665Y21659412D01*
X44976666Y21659411D01*
X45020537Y21593751D01*
X45020538Y21593750D01*
X48218136Y18396153D01*
X48251621Y18334830D01*
X48246637Y18265138D01*
X48218136Y18220791D01*
X47671280Y17673935D01*
X47633660Y17627252D01*
X47633659Y17627250D01*
X47633658Y17627248D01*
X47573872Y17496337D01*
X47553391Y17353879D01*
X47573871Y17211423D01*
X47573872Y17211419D01*
X47633658Y17080508D01*
X47633661Y17080503D01*
X47671275Y17033828D01*
X47671281Y17033821D01*
X49648166Y15056937D01*
X49648176Y15056928D01*
X49694851Y15019313D01*
X49825765Y14959526D01*
X49825769Y14959525D01*
X49968225Y14939045D01*
X50110682Y14959525D01*
X50241595Y15019312D01*
X50241596Y15019313D01*
X50241598Y15019314D01*
X50288281Y15056933D01*
X50288285Y15056937D01*
X50288290Y15056941D01*
X52830848Y17599501D01*
X52830856Y17599509D01*
X52868476Y17646192D01*
X52928264Y17777107D01*
X52948745Y17919565D01*
X52928264Y18062022D01*
X52868476Y18192938D01*
X52830857Y18239620D01*
X50853966Y20216510D01*
X50807284Y20254130D01*
X50676368Y20313918D01*
X50533911Y20334399D01*
X50391453Y20313918D01*
X50260538Y20254130D01*
X50213855Y20216511D01*
X50213850Y20216506D01*
X50213845Y20216502D01*
X49666997Y19669653D01*
X49605674Y19636168D01*
X49535983Y19641152D01*
X49491637Y19669651D01*
X46656817Y22504472D01*
X46623334Y22565793D01*
X46620500Y22592151D01*
X46620500Y36061382D01*
X46640185Y36128421D01*
X46656819Y36149063D01*
X47895819Y37388063D01*
X47957142Y37421548D01*
X48026834Y37416564D01*
X48082767Y37374692D01*
X48107184Y37309228D01*
X48107500Y37300382D01*
X48107500Y34187129D01*
X48107501Y34187123D01*
X48113908Y34127516D01*
X48164202Y33992671D01*
X48164206Y33992664D01*
X48250452Y33877455D01*
X48250455Y33877452D01*
X48365664Y33791206D01*
X48365671Y33791202D01*
X48500517Y33740908D01*
X48500516Y33740908D01*
X48560116Y33734501D01*
X48560119Y33734500D01*
X48560127Y33734500D01*
X48560134Y33734500D01*
X48560135Y33734500D01*
X51355870Y33734500D01*
X51355876Y33734501D01*
X51415483Y33740908D01*
X51550328Y33791202D01*
X51550335Y33791206D01*
X51665544Y33877452D01*
X51665547Y33877455D01*
X51751793Y33992664D01*
X51751797Y33992671D01*
X51802091Y34127517D01*
X51808500Y34187127D01*
X51808499Y36510637D01*
X51828184Y36577676D01*
X51844818Y36598318D01*
X56579464Y41332964D01*
X56662065Y41456586D01*
X56678013Y41480453D01*
X56708787Y41554748D01*
X56745895Y41644334D01*
X56780500Y41818309D01*
X56780500Y41995692D01*
X56780500Y45173691D01*
X56756678Y45293453D01*
X56745895Y45347666D01*
X56711953Y45429606D01*
X56678013Y45511547D01*
X56597990Y45631309D01*
X56579464Y45659036D01*
X48830833Y53407667D01*
X51189500Y53407667D01*
X51189500Y53132332D01*
X51189501Y53132315D01*
X51225438Y52859344D01*
X51225439Y52859337D01*
X51225440Y52859334D01*
X51227589Y52851314D01*
X51296704Y52593369D01*
X51402075Y52338982D01*
X51402080Y52338971D01*
X51539754Y52100516D01*
X51707370Y51882073D01*
X51707376Y51882066D01*
X51902066Y51687376D01*
X51902073Y51687370D01*
X52120516Y51519754D01*
X52358971Y51382080D01*
X52358982Y51382075D01*
X52613369Y51276704D01*
X52823125Y51220500D01*
X52879334Y51205440D01*
X52879337Y51205439D01*
X52879344Y51205438D01*
X53152315Y51169501D01*
X53152320Y51169500D01*
X53152326Y51169500D01*
X53152333Y51169500D01*
X53427667Y51169500D01*
X53427674Y51169500D01*
X53427679Y51169500D01*
X53427684Y51169501D01*
X53700655Y51205438D01*
X53700660Y51205439D01*
X53700666Y51205440D01*
X53833649Y51241072D01*
X53966630Y51276704D01*
X54221017Y51382075D01*
X54221028Y51382080D01*
X54364407Y51464861D01*
X54459479Y51519751D01*
X54499337Y51550335D01*
X54677926Y51687370D01*
X54677933Y51687376D01*
X54872623Y51882066D01*
X54872629Y51882073D01*
X55040245Y52100516D01*
X55040249Y52100521D01*
X55128732Y52253778D01*
X55177919Y52338971D01*
X55177924Y52338982D01*
X55283295Y52593368D01*
X55354560Y52859334D01*
X55390500Y53132326D01*
X55390500Y53407674D01*
X55354560Y53680666D01*
X55283295Y53946632D01*
X55177923Y54201021D01*
X55040249Y54439479D01*
X54872628Y54657928D01*
X54677928Y54852628D01*
X54459479Y55020249D01*
X54221021Y55157923D01*
X53966632Y55263295D01*
X53700666Y55334560D01*
X53427674Y55370500D01*
X53152326Y55370500D01*
X52879334Y55334560D01*
X52613368Y55263295D01*
X52358979Y55157923D01*
X52358976Y55157921D01*
X52358971Y55157919D01*
X52273778Y55108732D01*
X52120521Y55020249D01*
X52030403Y54951099D01*
X51902073Y54852629D01*
X51902066Y54852623D01*
X51707376Y54657933D01*
X51707370Y54657926D01*
X51549203Y54451797D01*
X51539751Y54439479D01*
X51497066Y54365547D01*
X51402080Y54201028D01*
X51402075Y54201017D01*
X51296705Y53946632D01*
X51225440Y53680666D01*
X51225439Y53680660D01*
X51225438Y53680655D01*
X51189501Y53407684D01*
X51189500Y53407667D01*
X48830833Y53407667D01*
X46929036Y55309464D01*
X46869959Y55348936D01*
X46869955Y55348939D01*
X46781552Y55408010D01*
X46781549Y55408011D01*
X46781547Y55408013D01*
X46699606Y55441953D01*
X46617666Y55475895D01*
X46443694Y55510499D01*
X46443693Y55510500D01*
X46443692Y55510500D01*
X46443691Y55510500D01*
X38035692Y55510500D01*
X37858308Y55510500D01*
X37858307Y55510500D01*
X37858303Y55510499D01*
X37684334Y55475895D01*
X37602297Y55441914D01*
X37520455Y55408014D01*
X37520446Y55408009D01*
X37372964Y55309464D01*
X37372960Y55309461D01*
X36608318Y54544818D01*
X36546995Y54511333D01*
X36520637Y54508499D01*
X34197128Y54508499D01*
X34148757Y54503299D01*
X34137516Y54502091D01*
X34002671Y54451797D01*
X34002664Y54451793D01*
X33887455Y54365547D01*
X33887452Y54365544D01*
X33801206Y54250335D01*
X33801202Y54250328D01*
X33750908Y54115482D01*
X33744501Y54055883D01*
X33744500Y54055864D01*
X20470634Y54055864D01*
X17947036Y56579464D01*
X17887959Y56618936D01*
X17887955Y56618939D01*
X17799552Y56678010D01*
X17799549Y56678011D01*
X17799547Y56678013D01*
X17717606Y56711953D01*
X17635666Y56745895D01*
X17461694Y56780499D01*
X17461693Y56780500D01*
X17461692Y56780500D01*
X17461691Y56780500D01*
X14217442Y56780500D01*
X14040058Y56780500D01*
X14040057Y56780500D01*
X14040053Y56780499D01*
X13866084Y56745895D01*
X13784143Y56711953D01*
X13702203Y56678013D01*
X13702200Y56678011D01*
X13613789Y56618936D01*
X13613786Y56618933D01*
X13554716Y56579466D01*
X4380534Y47405284D01*
X4341064Y47346211D01*
X4341063Y47346210D01*
X4281985Y47257794D01*
X4281984Y47257792D01*
X4248046Y47175857D01*
X4248046Y47175856D01*
X4214105Y47093916D01*
X4214103Y47093908D01*
X4179500Y46919946D01*
X900500Y46919946D01*
X900500Y53407667D01*
X3899500Y53407667D01*
X3899500Y53132332D01*
X3899501Y53132315D01*
X3935438Y52859344D01*
X3935439Y52859337D01*
X3935440Y52859334D01*
X3937589Y52851314D01*
X4006704Y52593369D01*
X4112075Y52338982D01*
X4112080Y52338971D01*
X4249754Y52100516D01*
X4417370Y51882073D01*
X4417376Y51882066D01*
X4612066Y51687376D01*
X4612073Y51687370D01*
X4830516Y51519754D01*
X5068971Y51382080D01*
X5068982Y51382075D01*
X5323369Y51276704D01*
X5533125Y51220500D01*
X5589334Y51205440D01*
X5589337Y51205439D01*
X5589344Y51205438D01*
X5862315Y51169501D01*
X5862320Y51169500D01*
X5862326Y51169500D01*
X5862333Y51169500D01*
X6137667Y51169500D01*
X6137674Y51169500D01*
X6137679Y51169500D01*
X6137684Y51169501D01*
X6410655Y51205438D01*
X6410660Y51205439D01*
X6410666Y51205440D01*
X6543649Y51241072D01*
X6676630Y51276704D01*
X6931017Y51382075D01*
X6931028Y51382080D01*
X7074407Y51464861D01*
X7169479Y51519751D01*
X7209337Y51550335D01*
X7387926Y51687370D01*
X7387933Y51687376D01*
X7582623Y51882066D01*
X7582629Y51882073D01*
X7750245Y52100516D01*
X7750249Y52100521D01*
X7838732Y52253778D01*
X7887919Y52338971D01*
X7887924Y52338982D01*
X7993295Y52593368D01*
X8064560Y52859334D01*
X8100500Y53132326D01*
X8100500Y53407674D01*
X8064560Y53680666D01*
X7993295Y53946632D01*
X7887923Y54201021D01*
X7750249Y54439479D01*
X7582628Y54657928D01*
X7387928Y54852628D01*
X7169479Y55020249D01*
X6931021Y55157923D01*
X6676632Y55263295D01*
X6410666Y55334560D01*
X6137674Y55370500D01*
X5862326Y55370500D01*
X5589334Y55334560D01*
X5323368Y55263295D01*
X5068979Y55157923D01*
X5068976Y55157921D01*
X5068971Y55157919D01*
X4983778Y55108732D01*
X4830521Y55020249D01*
X4740403Y54951099D01*
X4612073Y54852629D01*
X4612066Y54852623D01*
X4417376Y54657933D01*
X4417370Y54657926D01*
X4259203Y54451797D01*
X4249751Y54439479D01*
X4207066Y54365547D01*
X4112080Y54201028D01*
X4112075Y54201017D01*
X4006705Y53946632D01*
X3935440Y53680666D01*
X3935439Y53680660D01*
X3935438Y53680655D01*
X3899501Y53407684D01*
X3899500Y53407667D01*
X900500Y53407667D01*
X900500Y58245500D01*
X920185Y58312539D01*
X972989Y58358294D01*
X1024500Y58369500D01*
X58265500Y58369500D01*
X58332539Y58349815D01*
G37*
%TD.AperFunction*%
%TD*%
M02*
